<?xml version="1.0" standalone="no"?>
<!DOCTYPE svg PUBLIC "-//W3C//DTD SVG 20010904//EN"
 "http://www.w3.org/TR/2001/REC-SVG-20010904/DTD/svg10.dtd">
<svg version="1.0" xmlns="http://www.w3.org/2000/svg"
 width="427.000000pt" height="420.000000pt" viewBox="0 0 427.000000 420.000000"
 preserveAspectRatio="xMidYMid meet">
<metadata>
Created by potrace 1.16, written by Peter Selinger 2001-2019
</metadata>
<g transform="translate(0.000000,420.000000) scale(0.100000,-0.100000)"
fill="#000000" stroke="none">
<path d="M1795 4193 c-11 -2 -58 -11 -105 -20 -297 -55 -661 -232 -915 -445
-106 -89 -280 -266 -352 -358 -216 -277 -356 -614 -408 -985 -20 -140 -20
-493 1 -632 117 -793 665 -1460 1404 -1707 l135 -46 565 0 566 0 89 26 c199
57 442 182 630 322 108 81 305 269 388 372 203 252 363 593 432 920 46 219 59
552 30 760 -27 185 -78 373 -108 392 -38 24 -108 6 -437 -113 -205 -74 -342
-129 -352 -141 -23 -26 -23 -87 -1 -175 14 -54 17 -113 18 -283 0 -200 -2
-222 -27 -320 -66 -263 -163 -435 -348 -621 -184 -184 -370 -286 -625 -341
-95 -20 -391 -17 -495 6 -446 97 -816 445 -943 886 -40 140 -50 237 -44 435 4
148 9 198 31 281 64 257 206 488 407 663 196 170 413 266 664 292 157 16 164
18 177 42 20 33 19 757 -1 780 -12 15 -37 17 -185 16 -94 -1 -180 -3 -191 -6z"/>
<path d="M2290 4182 l-25 -20 0 -382 0 -382 22 -18 c13 -10 53 -23 90 -30 158
-27 353 -112 489 -213 140 -105 282 -267 360 -412 20 -38 44 -76 52 -82 38
-31 101 -15 437 107 181 66 336 127 344 135 10 10 15 34 15 70 -1 49 -9 68
-69 173 -172 298 -414 556 -700 745 -255 168 -631 301 -910 323 -71 6 -83 4
-105 -14z"/>
</g>
</svg>
